{"title":"The Brothers Grimsby *2016*[1080p.DTS 5.1.AC3.BluRay.x264-LEON 3","uid":15505499,"size":8055486589,"categoryP":"video","categoryS":"hd___movies","magnet":"?xt=urn:btih:fe85f96d6100c389e8ba2c362708986944c5f5cf&amp;dn=The+Brothers+Grimsby+%2A2016%2A%5B1080p.DTS+5.1.AC3.BluRay.x264-LEON+3&amp;tr=udp%3A%2F%2Ftracker.leechers-paradise.org%3A6969&amp;tr=udp%3A%2F%2Fzer0day.ch%3A1337&amp;tr=udp%3A%2F%2Fopen.demonii.com%3A1337&amp;tr=udp%3A%2F%2Ftracker.coppersurfer.tk%3A6969&amp;tr=udp%3A%2F%2Fexodus.desync.com%3A6969","seeders":21,"leechers":3,"uploader":"Leon345","files":3,"time":1470574278,"description":"Grimsby - The Brothers Grimsby *2016* BDRip.1080p.DTS 5.1.Leon345\r\n ===================================================\r\n Dopasowane rozmiarem pod DVD9 ( do nagrania na płytke jeśli jeszcze ktoś to robi :)\r\n ===================================================\r\n\r\n[img]http://i1365.photobucket.com/albums/r749/leon3456/Grimsby.1080p_zpsirxwxziv.jpg[/img]\r\n\r\n Produkcja: Australia, Wielka Brytania\r\n Gatunek: Komedia, Akcja\r\n Czas trwania: 83 min.\r\n Premiera: 26.02.2016 - Polska, 24.02.2016 - Świat\r\n Reżyseria: Louis Leterrier\r\n Scenariusz: Sacha Baron Cohen, Phil Johnston, Peter Baynham\r\n \nhttp://imdb.com/title/tt3381008/\r\n\r\n Absolutna jazda bez trzymanki! Komedia absurdu według scenariusza Sachy Barona Cohena. Film opowiada historię brytyjskiego agenta do zadań specjalnych (Mark Strong), który wmieszany w spisek, musi ukrywać się w rodzinnym Grimsby, przy którym najciemniejsze zakątki warszawskiej Pragi wydają się centrum kulturalnym wszechświata. W wyplątaniu się z dramatycznej życiowej sytuacji pomaga mu brat. Kibol-degenerat o złotym sercu.\r\n\r\n OBSADA:\r\n\r\n Sacha Baron Cohen - Norman &quot;Nobby&quot; Grimsby\r\n Mark Strong - Sebastian Grimsby\r\n Rebel Wilson - Dawn Grobham\r\n Penélope Cruz - Rhonda George\r\n Isla Fisher - Jodie Figgis\r\n Gabourey Sidibe - Sprzątaczka Banu\r\n Tamsin Egerton - Carla Barnes\r\n Scott Adkins - Pavel Lukashenko\r\n\r\n General\r\n\r\n Format : Matroska\r\n Format version : Version 2\r\n File size : 7.50 GiB\r\n Duration : 1h 23mn\r\n Overall bit rate : 12.9 Mbps\r\n Movie name : Grimsby.2016.BDRip.1080p.DTS.Leon345\r\n Encoded date : UTC 2016-07-28 10:10:22\r\n Writing application : mkvmerge v5.7.0 ('The Whirlwind') built on Jul 8 2012 20:08:51\r\n Writing library : libebml v1.2.3 + libmatroska v1.3.0\r\n Attachments : Grimsby.1080p.jpg\r\n\r\n Video\r\n ID : 1\r\n Format : AVC\r\n Format/Info : Advanced Video Codec\r\n Format profile :   \r\n Format settings, CABAC : Yes\r\n Format settings, ReFrames : 4 frames\r\n Codec ID : V_MPEG4/ISO/AVC\r\n Duration : 1h 23mn\r\n Bit rate : 10.1 Mbps\r\n Width : 1 920 pixels\r\n Height : 1 080 pixels\r\n Display aspect ratio : 16:9 (OAR 2.39:1)\r\n Frame rate mode : Constant\r\n Frame rate : 23.976 (24000/1001) fps\r\n Color space : YUV\r\n Chroma subsampling : 4:2:0\r\n Bit depth : 8 bits\r\n Scan type : Progressive\r\n Bits/(Pixel*Frame) : 0.203\r\n Stream size : 5.73 GiB (76%)\r\n Writing library : x264 \r\n Encoding settings : cabac=1 / [****]4 / deblock=1:-1:-1 / rc=2pass\r\n Default : Yes\r\n Forced : No\r\n\r\n Audio #1\r\n ID : 2\r\n Format : AC-3\r\n Format/Info : Audio Coding 3\r\n Mode extension : CM (complete main)\r\n Format settings, Endianness : Big\r\n Codec ID : A_AC3\r\n Duration : 1h 23mn\r\n Bit rate mode : Constant\r\n Bit rate : 640 Kbps\r\n Channel(s) : 6 channels\r\n Channel positions : Front: L C R, Side: L R, LFE\r\n Sampling rate : 48.0 KHz\r\n Compression mode : Lossy\r\n Stream size : 381 MiB (5%)\r\n Title : AC3 5.1 Lektor PL\r\n Language : Polish\r\n Default : Yes\r\n Forced : No\r\n\r\n Audio #2\r\n ID : 3\r\n Format : AC-3\r\n Format/Info : Audio Coding 3\r\n Mode extension : CM (complete main)\r\n Format settings, Endianness : Big\r\n Codec ID : A_AC3\r\n Duration : 1h 23mn\r\n Bit rate mode : Constant\r\n Bit rate : 640 Kbps\r\n Channel(s) : 6 channels\r\n Channel positions : Front: L C R, Side: L R, LFE\r\n Sampling rate : 48.0 KHz\r\n Compression mode : Lossy\r\n Stream size : 381 MiB (5%)\r\n Title : AC3 5.1 ENG\r\n Language : English\r\n Default : No\r\n Forced : No\r\n\r\n Audio #3\r\n ID : 4\r\n Format : DTS\r\n Format/Info : Digital Theater Systems\r\n Mode : 16\r\n Format settings, Endianness : Big\r\n Codec ID : A_DTS\r\n Duration : 1h 23mn\r\n Bit rate mode : Constant\r\n Bit rate : 1 509 Kbps\r\n Channel(s) : 6 channels\r\n Channel positions : Front: L C R, Side: L R, LFE\r\n Sampling rate : 48.0 KHz\r\n Bit depth : 16 bits\r\n Compression mode : Lossy\r\n Stream size : 897 MiB (12%)\r\n Title : DTS 5.1 ENG\r\n Language : English\r\n Default : No\r\n Forced : No\r\n\r\n Text #1\r\n ID : 5\r\n Format : UTF-8\r\n Codec ID : S_TEXT/UTF8\r\n Codec ID/Info : UTF-8 Plain Text\r\n Title : OCR z Bluray Leon345\r\n Language : Polish\r\n Default : No\r\n Forced : No\r\n\r\n Text #2\r\n ID : 6\r\n Format : UTF-8\r\n Codec ID : S_TEXT/UTF8\r\n Codec ID/Info : UTF-8 Plain Text\r\n Title : OCR z Bluray Leon345\r\n Language : English\r\n Default : No\r\n Forced : No\r\n\r\n Text #3\r\n ID : 7\r\n Format : PGS\r\n Muxing mode : zlib\r\n Codec ID : S_HDMV/PGS\r\n Codec ID/Info : Picture based subtitle format used on BDs/HD-DVDs\r\n Title : Bluray orginal\r\n Language : Polish\r\n Default : No\r\n Forced : No\r\n\r\n Text #4\r\n ID : 8\r\n Format : PGS\r\n Muxing mode : zlib\r\n Codec ID : S_HDMV/PGS\r\n Codec ID/Info : Picture based subtitle format used on BDs/HD-DVDs\r\n Title : Bluray orginal\r\n Language : English\r\n Default : No\r\n Forced : No\r\n\r\n Source:\r\n A/V-BD CEE","torrent":{"xt":"urn:btih:fe85f96d6100c389e8ba2c362708986944c5f5cf","amp;dn":"The+Brothers+Grimsby+%2A2016%2A%5B1080p.DTS+5.1.AC3.BluRay.x264-LEON+3","amp;tr":["udp%3A%2F%2Ftracker.leechers-paradise.org%3A6969","udp%3A%2F%2Fzer0day.ch%3A1337","udp%3A%2F%2Fopen.demonii.com%3A1337","udp%3A%2F%2Ftracker.coppersurfer.tk%3A6969","udp%3A%2F%2Fexodus.desync.com%3A6969"],"infoHash":"fe85f96d6100c389e8ba2c362708986944c5f5cf","infoHashBuffer":{"type":"Buffer","data":[254,133,249,109,97,0,195,137,232,186,44,54,39,8,152,105,68,197,245,207]},"announce":[],"urlList":[]}}